<svg width="14" height="14" viewBox="0 0 14 14" fill="none" xmlns="http://www.w3.org/2000/svg">
    <path d="M13.2502 9.54108L12.0971 10.6941C11.8486 10.5438 11.551 10.5081 11.2787 10.5885L8.98283 8.29136C9.49319 7.50879 9.49319 6.49117 8.98283 5.7086L11.2787 3.41298C11.551 3.49183 11.8486 3.45613 12.0971 3.30735L13.2502 4.46037C13.3454 4.55559 13.5002 4.55559 13.5954 4.46037C13.6906 4.36515 13.6906 4.21042 13.5954 4.11521L12.4423 2.96219C12.6788 2.56942 12.6297 2.0487 12.292 1.70949C11.9542 1.37177 11.432 1.32119 11.0391 1.55923L9.88749 0.404726C9.79226 0.309509 9.63752 0.309509 9.54229 0.404726C9.44706 0.499942 9.44706 0.65467 9.54229 0.749887L10.6954 1.9029C10.5466 2.15136 10.5094 2.44891 10.5898 2.72117L8.29243 5.01828C7.50978 4.50798 6.49204 4.50798 5.70938 5.01828L3.41351 2.72117C3.49237 2.44891 3.45666 2.15136 3.30787 1.9029L4.46101 0.749887C4.55624 0.65467 4.55624 0.499942 4.46101 0.404726C4.36578 0.309509 4.21104 0.309509 4.11581 0.404726L2.96267 1.55774C2.56985 1.32119 2.04908 1.37028 1.70983 1.70801C1.37207 2.04573 1.32148 2.56793 1.55955 2.9607L0.404917 4.11372C0.309689 4.20894 0.309689 4.36366 0.404917 4.45888C0.500144 4.5541 0.654889 4.5541 0.750116 4.45888L1.90326 3.30586C2.15175 3.45613 2.44933 3.49183 2.72162 3.4115L5.0175 5.7086C4.50565 6.49117 4.50565 7.51028 5.0175 8.29285L2.72162 10.587C2.44933 10.5081 2.15175 10.5438 1.90326 10.6926L0.750116 9.53959C0.654889 9.44438 0.500144 9.44438 0.404917 9.53959C0.309689 9.63481 0.309689 9.78954 0.404917 9.88475L1.55806 11.0378C1.32148 11.4305 1.37058 11.9513 1.70834 12.2905C2.0461 12.6297 2.56837 12.6788 2.96118 12.4407L4.11432 13.5937C4.20955 13.689 4.3643 13.689 4.45952 13.5937C4.55475 13.4985 4.55475 13.3438 4.45952 13.2486L3.30638 12.0971C3.45666 11.8486 3.49237 11.551 3.41202 11.2788L5.7079 8.98317C6.49055 9.49496 7.50978 9.49347 8.29243 8.98317L10.5883 11.2788C10.5094 11.551 10.5452 11.8486 10.6939 12.0971L9.5408 13.2501C9.44557 13.3453 9.44557 13.5 9.5408 13.5952C9.63603 13.6905 9.79077 13.6905 9.886 13.5952L11.0391 12.4422C11.432 12.6788 11.9527 12.6297 12.292 12.292C12.6297 11.9542 12.6803 11.432 12.4423 11.0393L13.5954 9.88624C13.6906 9.79102 13.6906 9.6363 13.5954 9.54108C13.5017 9.44586 13.3454 9.44586 13.2502 9.54108Z" fill="white"/>
</svg>
